<?xml version="1.0" encoding="UTF-8" standalone="no"?>
<svg
   width="34"
   height="34"
   viewBox="0 0 30 30"
   fill="none"
   version="1.1"
   id="svg4"
   sodipodi:docname="o.svg"
   inkscape:version="1.1.2 (b8e25be833, 2022-02-05)"
   xmlns:inkscape="http://www.inkscape.org/namespaces/inkscape"
   xmlns:sodipodi="http://sodipodi.sourceforge.net/DTD/sodipodi-0.dtd"
   xmlns="http://www.w3.org/2000/svg"
   xmlns:svg="http://www.w3.org/2000/svg">
  <defs
     id="defs8" />
  <sodipodi:namedview
     id="namedview6"
     pagecolor="#ffffff"
     bordercolor="#666666"
     borderopacity="1.0"
     inkscape:pageshadow="2"
     inkscape:pageopacity="0.0"
     inkscape:pagecheckerboard="0"
     showgrid="false"
     inkscape:zoom="22.647059"
     inkscape:cx="16.977922"
     inkscape:cy="16.977922"
     inkscape:window-width="1706"
     inkscape:window-height="1111"
     inkscape:window-x="686"
     inkscape:window-y="-1725"
     inkscape:window-maximized="0"
     inkscape:current-layer="svg4" />
  <path
     d="m 17.718141,2.4382223 c 4.221397,0 7.325365,0.8535784 9.311906,2.560774 2.017579,1.7071826 3.026369,3.9420399 3.026369,6.7045727 0,0.93119 -0.124159,1.971019 -0.372476,3.119488 -0.589755,2.545253 -1.691663,4.780111 -3.305727,6.704571 -1.614063,1.893421 -3.600604,3.367807 -5.95962,4.423156 -2.327976,1.024309 -4.85771,1.536464 -7.589203,1.536464 -4.3145285,0 -7.511616,-0.853591 -9.591275,-2.560774 -2.0486191,-1.738222 -3.07293519,-4.035159 -3.07293519,-6.89081 0,-0.96223 0.12415873,-2.033099 0.37247621,-3.212607 C 1.1274165,12.401961 2.2448452,10.260223 3.8899484,8.3978417 5.5660914,6.504421 7.5991908,5.0455558 9.9892466,4.0212462 12.410342,2.9658969 14.986648,2.4382223 17.718141,2.4382223 Z m -0.139678,4.1437979 c -0.651834,0 -1.350227,0.589754 -2.095179,1.769262 -0.713913,1.1484683 -1.567505,3.3367658 -2.560774,6.5648928 -0.993283,3.228128 -1.489918,5.494025 -1.489918,6.797692 0,0.682872 0.108639,1.148468 0.325916,1.396785 0.217278,0.217278 0.512155,0.325917 0.884644,0.325917 0.651834,0.06208 1.319187,-0.496635 2.00206,-1.676143 0.713913,-1.179508 1.598544,-3.476445 2.653893,-6.89081 0.962231,-3.010849 1.443345,-5.1991472 1.443345,-6.5648933 0,-0.6518334 -0.108639,-1.1019088 -0.325917,-1.3502262 -0.186237,-0.2483176 -0.465594,-0.3724763 -0.83807,-0.3724763 z"
     fill="#101010"
     id="path2"
     style="stroke-width:1.29332" />
</svg>
